<svg xmlns="http://www.w3.org/2000/svg" viewBox="0 0 621.20 167.60" width="621.20" height="167.60">
  
  <g transform="translate(10.0,20.0)" fill="#FAFAF7">
    <path d="M70 0V496H194V442H212Q225 467 255.0 485.5Q285 504 334 504Q387 504 419.0 483.5Q451 463 468 430H486Q503 462 534.0 483.0Q565 504 622 504Q668 504 705.5 484.5Q743 465 765.5 425.5Q788 386 788 326V0H662V317Q662 358 641.0 378.5Q620 399 582 399Q539 399 515.5 371.5Q492 344 492 293V0H366V317Q366 358 345.0 378.5Q324 399 286 399Q243 399 219.5 371.5Q196 344 196 293V0Z" transform="translate(0.0,98.4) scale(0.1,-0.1)"/>
    <path d="M306 -14Q232 -14 173.0 16.0Q114 46 80.0 103.0Q46 160 46 240V256Q46 336 80.0 393.0Q114 450 173.0 480.0Q232 510 306 510Q380 510 439.0 480.0Q498 450 532.0 393.0Q566 336 566 256V240Q566 160 532.0 103.0Q498 46 439.0 16.0Q380 -14 306 -14ZM306 98Q364 98 402.0 135.5Q440 173 440 243V253Q440 323 402.5 360.5Q365 398 306 398Q248 398 210.0 360.5Q172 323 172 253V243Q172 173 210.0 135.5Q248 98 306 98Z" transform="translate(85.4,98.4) scale(0.1,-0.1)"/>
    <path d="M52 0V150L324 376V392H62V496H462V346L190 120V104H470V0Z" transform="translate(146.6,98.4) scale(0.1,-0.1)"/>
    <path d="M224 -14Q171 -14 129.0 4.5Q87 23 62.5 58.5Q38 94 38 145Q38 196 62.5 230.5Q87 265 130.5 282.5Q174 300 230 300H366V328Q366 363 344.0 385.5Q322 408 274 408Q227 408 204.0 386.5Q181 365 174 331L58 370Q70 408 96.5 439.5Q123 471 167.5 490.5Q212 510 276 510Q374 510 431.0 461.0Q488 412 488 319V134Q488 104 516 104H556V0H472Q435 0 411.0 18.0Q387 36 387 66V67H368Q364 55 350.0 35.5Q336 16 306.0 1.0Q276 -14 224 -14ZM246 88Q299 88 332.5 117.5Q366 147 366 196V206H239Q204 206 184.0 191.0Q164 176 164 149Q164 122 185.0 105.0Q206 88 246 88Z" transform="translate(198.4,98.4) scale(0.1,-0.1)"/>
    <path d="M70 0V496H194V440H212Q223 470 248.5 484.0Q274 498 308 498H368V386H306Q258 386 227.0 360.5Q196 335 196 282V0Z" transform="translate(256.2,98.4) scale(0.1,-0.1)"/>
    <path d="M260 0Q211 0 180.5 30.5Q150 61 150 112V392H26V496H150V650H276V496H412V392H276V134Q276 104 304 104H400V0Z" transform="translate(295.8,98.4) scale(0.1,-0.1)"/>
  </g>
  <g transform="translate(351.40000000000003,20.0)" fill="#7C3AED">
    <path d="M65 -162V-48H555V-162Z" transform="translate(0.0,98.4) scale(0.1,-0.1)"/>
  </g>
  <g transform="translate(413.40000000000003,20.0)" fill="#FAFAF7">
    <path d="M110 0 40 496H165L209 85H227L291 496H493L557 85H575L619 496H744L674 0H465L401 411H383L319 0Z" transform="translate(0.0,98.4) scale(0.1,-0.1)"/>
    <path d="M224 -14Q171 -14 129.0 4.5Q87 23 62.5 58.5Q38 94 38 145Q38 196 62.5 230.5Q87 265 130.5 282.5Q174 300 230 300H366V328Q366 363 344.0 385.5Q322 408 274 408Q227 408 204.0 386.5Q181 365 174 331L58 370Q70 408 96.5 439.5Q123 471 167.5 490.5Q212 510 276 510Q374 510 431.0 461.0Q488 412 488 319V134Q488 104 516 104H556V0H472Q435 0 411.0 18.0Q387 36 387 66V67H368Q364 55 350.0 35.5Q336 16 306.0 1.0Q276 -14 224 -14ZM246 88Q299 88 332.5 117.5Q366 147 366 196V206H239Q204 206 184.0 191.0Q164 176 164 149Q164 122 185.0 105.0Q206 88 246 88Z" transform="translate(78.4,98.4) scale(0.1,-0.1)"/>
    <path d="M124 -200V-90H394Q422 -90 422 -60V65H404Q396 48 379.0 31.0Q362 14 333.0 3.0Q304 -8 259 -8Q201 -8 157.5 18.5Q114 45 90.0 92.0Q66 139 66 200V496H192V210Q192 154 219.5 126.0Q247 98 298 98Q356 98 388.0 136.5Q420 175 420 244V496H546V-88Q546 -139 516.0 -169.5Q486 -200 436 -200Z" transform="translate(136.20000000000002,98.4) scale(0.1,-0.1)"/>
  </g>
</svg>